<?xml version="1.0" encoding="utf-8"?>
<!-- Generator: Adobe Illustrator 25.2.0, SVG Export Plug-In . SVG Version: 6.00 Build 0)  -->
<svg version="1.1" id="Layer_1" xmlns="http://www.w3.org/2000/svg" xmlns:xlink="http://www.w3.org/1999/xlink" x="0px" y="0px"
	 viewBox="0 0 2000 2000" style="enable-background:new 0 0 2000 2000;" xml:space="preserve">
<style type="text/css">
	.st0{fill:#02021E;}
	.st1{fill:#F2F2F4;}
	.st2{fill:#0D0F24;}
	.st3{fill:#FFFFFF;}
	.st4{fill:url(#SVGID_1_);}
	.st5{fill:url(#SVGID_2_);}
	.st6{fill:url(#SVGID_3_);}
	.st7{fill:url(#SVGID_4_);}
	.st8{fill:url(#SVGID_5_);}
	.st9{fill:url(#SVGID_6_);}
	.st10{fill:url(#SVGID_7_);}
	.st11{fill:url(#SVGID_8_);}
	.st12{fill:url(#SVGID_9_);}
	.st13{fill:url(#SVGID_10_);}
	.st14{fill:url(#SVGID_11_);}
	.st15{fill:url(#SVGID_12_);}
	.st16{fill:url(#SVGID_13_);}
	.st17{fill:url(#SVGID_14_);}
	.st18{fill:url(#SVGID_15_);}
	.st19{opacity:0.5;}
	.st20{opacity:0.5;fill:#FFFFFF;}
	.st21{fill:none;}
	.st22{fill:url(#SVGID_16_);}
	.st23{fill:url(#SVGID_17_);}
	.st24{fill:url(#SVGID_18_);}
	.st25{fill:url(#SVGID_19_);}
	.st26{fill:url(#SVGID_20_);}
	.st27{fill:url(#SVGID_21_);}
	.st28{fill:url(#SVGID_22_);}
	.st29{fill:url(#SVGID_23_);}
	.st30{fill:url(#SVGID_24_);}
	.st31{fill:url(#SVGID_25_);}
	.st32{fill:url(#SVGID_26_);}
	.st33{fill:url(#SVGID_27_);}
	.st34{fill:url(#SVGID_28_);}
	.st35{fill:url(#SVGID_29_);}
	.st36{fill:url(#SVGID_30_);}
	.st37{fill:url(#SVGID_31_);}
	.st38{fill:#FFA123;}
	.st39{opacity:0.2;}
	.st40{fill:#283CBF;}
	.st41{fill:#F9F8F7;}
	.st42{fill:#02352C;}
	.st43{fill:#FFFEFF;}
	.st44{fill:url(#SVGID_32_);}
	.st45{fill:url(#SVGID_33_);}
	.st46{fill:url(#SVGID_34_);}
	.st47{fill:#14D191;}
	.st48{fill:url(#SVGID_35_);}
	.st49{fill:url(#SVGID_36_);}
	.st50{fill:url(#SVGID_37_);}
	.st51{fill:url(#SVGID_38_);}
	.st52{fill:url(#SVGID_39_);}
	.st53{fill:url(#SVGID_40_);}
</style>
<g>
	<g>
		<g>
			<g>
				<g>
					<g>
						<polygon class="st43" points="1051.82,841.45 960.8,957.38 982.01,974.03 1051.84,885.09 1152.92,1013.63 1083.59,1013.63 
							1058.26,981.43 1023.96,981.43 1070.49,1040.59 1208.42,1040.59 						"/>
					</g>
					<polygon class="st43" points="953.11,879.23 910.51,933.5 975.02,982.86 929.72,1040.56 791.58,1040.56 855.06,959.58 
						876.78,976.29 847.51,1013.6 916.64,1013.6 937.03,987.67 872.22,937.91 949.43,839.66 1001.74,886.58 985.07,907.81 					"/>
				</g>
				<polygon class="st43" points="1089.57,947.53 1060.82,928.67 1051.49,945.11 1042.35,928.67 1014.46,947.27 1052.34,897.67 				
					"/>
			</g>
		</g>
		<g>
			<g>
				<path class="st43" d="M525.73,1138.19c0,12.25-11.95,21.07-22.93,21.36h-0.1c-10.98-0.29-19.99-6.76-26.16-15.29l12.35-8.72
					c3.23,4.7,8.03,8.92,13.82,8.92c4.7,0,7.94-3.92,7.94-6.17c0-4.8-5.29-6.96-10.78-10.09c-7.84-4.7-18.23-10.19-18.23-22.24
					c0-13.62,11.47-20.58,22.54-20.58c7.06,0,14.99,3.53,19.4,7.64l-10.39,10.88c-3.43-2.25-6.17-3.43-9.01-3.43
					c-3.43,0-7.45,1.47-7.45,5.29c0,3.14,5.68,6.37,11.66,9.8C516.23,1119.96,525.73,1125.55,525.73,1138.19z"/>
				<path class="st43" d="M590.51,1086.55v46.15h-0.1c-0.3,13.82-11.47,25.97-25.97,25.97c-13.62,0-25.97-11.37-25.97-25.97v-46.15
					h16.07v46.15c0,5.1,4.41,9.9,9.9,9.9c5.39,0,9.6-4.41,9.9-9.9h0.1v-46.15H590.51z"/>
				<path class="st43" d="M659.91,1158.37l-6.86-32.14l-16.56,32.73l-15.98-31.46l-6.56,30.87H601.5l15.49-72.81l8.72,17.84
					l12.35,25.09l11.07-20.78l11.66-21.75l15.39,72.42H659.91z"/>
				<path class="st43" d="M744.39,1158.37l-6.86-32.14l-16.56,32.73L705,1127.51l-6.56,30.87h-12.45l15.48-72.81l8.72,17.84
					l12.35,25.09l11.07-20.78l11.66-21.75l15.39,72.42H744.39z"/>
				<path class="st43" d="M789.48,1158.37h-16.07v-71.83h16.07V1158.37z"/>
				<path class="st43" d="M832.7,1098.79v59.58h-16.07v-59.58h-15.88l0.98-12.25h45.96l0.98,12.25H832.7z"/>
				<path class="st43" d="M926.2,1148.87h-20.28l-3.82,9.51h-13.23l29.3-72.42l29.2,72.42h-17.25L926.2,1148.87z M921.3,1136.62
					l-5.19-12.94l-5.19,12.94H921.3z"/>
				<path class="st43" d="M1007.74,1086.55v46.15h-0.1c-0.3,13.82-11.47,25.97-25.97,25.97c-13.62,0-25.97-11.37-25.97-25.97v-46.15
					h16.07v46.15c0,5.1,4.41,9.9,9.9,9.9c5.39,0,9.6-4.41,9.9-9.9h0.1v-46.15H1007.74z"/>
				<path class="st43" d="M1051.45,1098.79v59.58h-16.07v-59.58h-15.88l0.98-12.25h45.96l0.98,12.25H1051.45z"/>
				<path class="st43" d="M1146.42,1122.31c0,20.09-16.76,36.26-36.75,36.75c-19.3,0-36.75-16.07-36.75-36.75
					c0-19.6,16.76-36.75,36.75-36.75C1129.27,1085.56,1146.42,1102.32,1146.42,1122.31z M1129.66,1122.31
					c0-11.07-7.64-23.81-19.99-23.81c-11.76,0-19.99,11.66-19.99,23.81c0,11.56,7.65,23.03,19.99,23.81
					C1121.03,1146.13,1129.66,1134.76,1129.66,1122.31z"/>
				<path class="st43" d="M1211.79,1158.37l-6.86-32.14l-16.56,32.73l-15.98-31.46l-6.56,30.87h-12.45l15.49-72.81l8.72,17.84
					l12.35,25.09l11.07-20.78l11.66-21.75l15.39,72.42H1211.79z"/>
				<path class="st43" d="M1272.76,1148.87h-20.28l-3.82,9.51h-13.23l29.3-72.42l29.2,72.42h-17.25L1272.76,1148.87z
					 M1267.86,1136.62l-5.19-12.94l-5.19,12.94H1267.86z"/>
				<path class="st43" d="M1325.88,1098.79v59.58h-16.07v-59.58h-15.88l0.98-12.25h45.96l0.98,12.25H1325.88z"/>
				<path class="st43" d="M1370.18,1158.37h-16.07v-71.83h16.07V1158.37z"/>
				<path class="st43" d="M1455.93,1122.31c0,20.09-16.76,36.26-36.75,36.75c-19.3,0-36.75-16.07-36.75-36.75
					c0-19.6,16.76-36.75,36.75-36.75C1438.78,1085.56,1455.93,1102.32,1455.93,1122.31z M1439.17,1122.31
					c0-11.07-7.65-23.81-19.99-23.81c-11.76,0-19.99,11.66-19.99,23.81c0,11.56,7.65,23.03,19.99,23.81
					C1430.55,1146.13,1439.17,1134.76,1439.17,1122.31z"/>
				<path class="st43" d="M1507.38,1086.55h16.07v73.79l-39.69-37.24v35.28h-16.07v-72.42l39.69,37.24V1086.55z"/>
			</g>
		</g>
	</g>
</g>
</svg>
